<svg width="400" height="400" viewBox="0 0 400 400" fill="none" xmlns="http://www.w3.org/2000/svg">
<path d="M211.697 268.355L187.532 272.13C179.191 273.43 172.427 267.39 172.427 258.644V30.4784C172.427 21.7326 179.191 13.5741 187.532 12.2738L211.697 8.50913C220.038 7.2088 226.802 13.249 226.802 21.9948V250.15C226.802 258.896 220.038 267.054 211.697 268.355Z" fill="#002E5B"/>
<path d="M310.647 151.44C304.804 152.3 300.073 148.305 300.073 142.527V103.622C300.073 97.8333 304.804 92.4537 310.647 91.5938C316.49 90.7339 321.221 94.7293 321.221 100.507V139.412C321.221 145.201 316.49 150.581 310.647 151.44Z" fill="#002E5B"/>
<path d="M78.0183 181.18C78.0183 186.958 82.7497 190.953 88.5926 190.093C94.4354 189.233 99.1669 183.854 99.1669 178.065V139.16C99.1669 133.382 94.4354 129.387 88.5926 130.247C82.7497 131.107 78.0183 136.486 78.0183 142.275V181.18Z" fill="#002E5B"/>
<path d="M251.724 224.688L275.89 220.777C284.231 219.424 290.994 210.972 290.994 201.901V50.7693C290.994 41.6984 284.231 35.438 275.89 36.7907L251.724 40.7022C243.384 42.055 236.62 50.5071 236.62 59.5779V210.71C236.62 219.781 243.384 226.041 251.724 224.688Z" fill="#DD0915"/>
<path d="M123.34 243.954L147.505 240.043V240.053C155.846 238.701 162.61 230.238 162.61 221.157V69.8151C162.61 60.7338 155.846 54.4628 147.505 55.8156L123.34 59.7271C114.999 61.0798 108.235 69.5424 108.235 78.6238V229.955C108.235 239.036 114.999 245.307 123.34 243.954Z" fill="#DD0915"/>
<path d="M171.104 354.523V300.046C171.104 299.396 170.819 298.903 170.236 298.578C169.654 298.253 169.019 298.001 168.342 297.844C167.495 297.634 166.574 297.519 165.579 297.519C164.637 297.519 163.811 297.623 163.134 297.844C162.509 298.001 161.938 298.232 161.44 298.536C160.943 298.84 160.689 299.259 160.689 299.805V354.523H171.104Z" fill="#002E5B"/>
<path fill-rule="evenodd" clip-rule="evenodd" d="M152.883 354.523L143.813 332.85C146.019 331.32 147.709 329.257 148.892 326.64C150.078 324.028 150.724 320.673 150.829 316.583C150.935 313.469 150.512 310.732 149.57 308.362C148.628 305.992 147.294 303.999 145.59 302.395C143.886 300.79 141.875 299.584 139.557 298.798C137.238 298.011 134.793 297.613 132.221 297.613H124.96L113.211 297.854V354.775H123.383L123.7 336.78H130.401C130.983 336.728 131.523 336.686 132.02 336.654C132.518 336.623 133.004 336.56 133.481 336.445H133.714L140.975 354.523H152.883ZM129.3 326.545C130.718 326.545 132.115 326.398 133.481 326.094C134.846 325.79 136.074 325.276 137.143 324.542C138.223 323.808 139.091 322.812 139.747 321.554C140.403 320.295 140.731 318.722 140.731 316.814C140.731 315.073 140.446 313.573 139.863 312.315C139.281 311.057 138.509 310.029 137.535 309.211C136.561 308.393 135.46 307.795 134.222 307.407C132.983 307.03 131.713 306.831 130.401 306.831H123.383V326.545H129.3Z" fill="#002E5B"/>
<path fill-rule="evenodd" clip-rule="evenodd" d="M96.4895 324.753C97.5374 325.246 98.5748 325.886 99.6015 326.672C100.628 327.459 101.539 328.434 102.322 329.577C103.105 330.72 103.751 332.062 104.259 333.583C104.756 335.114 105.01 336.823 105.01 338.732C105.01 341.29 104.523 343.555 103.55 345.516C102.576 347.477 101.253 349.145 99.5697 350.508C97.8867 351.871 95.8862 352.899 93.5787 353.58C91.2606 354.262 88.7414 354.598 86.0105 354.598H67.4658V298.002H85.2167C91.5782 298.002 96.2461 299.124 99.2099 301.358C102.184 303.591 103.666 307.115 103.666 311.907C103.666 313.648 103.454 315.189 103.031 316.532C102.608 317.863 102.068 319.069 101.412 320.128C100.755 321.188 99.9931 322.11 99.1252 322.865C98.2572 323.631 97.3787 324.26 96.479 324.753H96.4895ZM78.273 320.254H84.0311C86.815 320.254 88.9637 319.667 90.4562 318.493C91.9592 317.318 92.7002 315.567 92.7002 313.218C92.7002 310.869 91.8745 309.181 90.2127 308.31C88.5615 307.44 86.4127 306.999 83.7877 306.999H78.2624V320.244L78.273 320.254ZM78.273 345.118H84.4228C87.4712 345.118 89.7999 344.604 91.3982 343.566C92.9965 342.528 93.801 340.672 93.801 338.008C93.801 335.502 93.0495 333.656 91.557 332.492C90.0539 331.318 87.5771 330.73 84.1052 330.73H78.273V345.118Z" fill="#002E5B"/>
<path d="M218.409 308.392H203.982V354.438H193.726V308.392H179.214C178.526 308.392 178.018 308.129 177.679 307.616C177.34 307.102 177.086 306.515 176.927 305.854C176.716 305.088 176.61 304.218 176.61 303.232C176.61 302.309 176.716 301.491 176.927 300.778C177.086 300.181 177.351 299.604 177.711 299.059C178.081 298.513 178.579 298.241 179.214 298.241H218.568C219.15 298.241 219.606 298.513 219.944 299.059C220.283 299.604 220.537 300.202 220.696 300.862C220.907 301.628 221.013 302.477 221.013 303.4C220.96 304.386 220.833 305.225 220.622 305.938C220.463 306.535 220.209 307.091 219.87 307.616C219.531 308.129 219.045 308.392 218.409 308.392Z" fill="#002E5B"/>
<path d="M236.953 354.523V300.046C236.953 299.396 236.667 298.903 236.085 298.578C235.503 298.253 234.867 298.001 234.19 297.844C233.343 297.634 232.422 297.519 231.427 297.519C230.485 297.519 229.66 297.623 228.982 297.844C228.358 298.001 227.786 298.232 227.289 298.536C226.791 298.84 226.537 299.259 226.537 299.805V354.523H236.953Z" fill="#002E5B"/>
<path d="M243.492 347.246L243.812 346.586C244.077 346.04 244.447 345.495 244.913 344.95C245.389 344.404 245.95 343.891 246.606 343.398C247.263 342.905 248.035 342.496 248.935 342.171C249.57 342.066 250.015 342.087 250.279 342.255C250.491 342.36 250.65 342.475 250.756 342.58C252.333 343.996 253.878 344.981 255.413 345.527C256.937 346.072 258.641 346.344 260.536 346.344C261.637 346.344 262.78 346.24 263.966 346.019C265.151 345.799 266.21 345.432 267.162 344.918C268.104 344.404 268.898 343.723 269.533 342.873C270.168 342.024 270.475 340.975 270.475 339.727C270.475 337.714 269.83 336.162 268.538 335.061C267.247 333.97 265.659 333.048 263.764 332.282C261.87 331.517 259.795 330.793 257.53 330.111C255.265 329.43 253.19 328.517 251.295 327.374C249.401 326.231 247.813 324.679 246.522 322.708C245.23 320.747 244.585 318.125 244.585 314.853C244.585 312.022 245.093 309.547 246.119 307.45C247.146 305.353 248.512 303.601 250.226 302.217C251.931 300.822 253.921 299.805 256.175 299.155C258.44 298.505 260.801 298.169 263.278 298.169C265.754 298.169 268.401 298.557 270.93 299.312C273.45 300.078 275.715 301.326 277.715 303.077C278.033 303.35 278.245 303.675 278.35 304.052C278.403 304.273 278.403 304.461 278.35 304.629C278.086 305.604 277.715 306.443 277.25 307.125C276.773 307.807 276.276 308.383 275.747 308.845C275.217 309.306 274.709 309.673 274.212 309.946C273.714 310.218 273.28 310.439 272.91 310.596C272.751 310.648 272.571 310.68 272.359 310.68C271.936 310.68 271.544 310.512 271.174 310.187C270.38 309.694 269.692 309.306 269.089 309.002C268.485 308.698 267.85 308.457 267.194 308.268C266.538 308.079 265.818 307.943 265.024 307.859C264.23 307.775 263.309 307.733 262.261 307.733C260.102 307.681 258.387 308.1 257.096 309.002C255.805 309.904 255.159 311.634 255.159 314.193C255.159 316.049 255.805 317.465 257.096 318.45C258.387 319.436 259.996 320.275 261.944 320.988C263.891 321.701 265.987 322.393 268.252 323.075C270.507 323.757 272.613 324.7 274.561 325.896C276.509 327.091 278.118 328.696 279.409 330.678C280.7 332.67 281.346 335.302 281.346 338.574C281.346 341.521 280.743 344.079 279.536 346.261C278.329 348.442 276.742 350.266 274.762 351.745C272.793 353.213 270.539 354.304 268.02 355.017C265.5 355.73 262.949 356.076 260.367 356.076C257.107 356.076 254.005 355.562 251.063 354.524C248.12 353.486 245.569 351.714 243.41 349.207C243.304 349.102 243.23 348.966 243.177 348.798C243.071 348.421 243.071 348.117 243.177 347.896C243.266 347.715 243.371 347.498 243.492 347.246Z" fill="#002E5B"/>
<path d="M299.332 354.521V333.171H321.973V354.521H332.537V299.97C332.537 299.425 332.283 299.005 331.754 298.701C331.235 298.408 330.684 298.177 330.102 298.009C329.361 297.8 328.546 297.684 327.657 297.684C326.599 297.684 325.678 297.758 324.895 297.925C324.217 298.083 323.593 298.334 323.042 298.659C322.492 298.984 322.217 299.477 322.217 300.128V323.187H299.184V300.128C299.184 299.477 298.898 298.984 298.316 298.659C297.734 298.334 297.099 298.083 296.421 297.925C295.574 297.768 294.654 297.684 293.659 297.684C292.717 297.684 291.891 297.789 291.213 298.009C290.631 298.167 290.091 298.408 289.594 298.701C289.096 299.005 288.842 299.425 288.842 299.97V354.521H299.332Z" fill="#002E5B"/>
<path d="M320.655 382.837C320.835 383.015 321.047 383.099 321.301 383.099L321.311 383.109H327.059C326.445 384.347 325.662 385.27 324.698 385.867C323.735 386.465 322.454 386.769 320.856 386.769C318.295 386.769 316.347 385.972 315.013 384.357C313.68 382.742 313.013 380.519 313.013 377.677C313.013 376.367 313.182 375.171 313.521 374.091C313.859 373 314.368 372.078 315.024 371.312C315.691 370.547 316.506 369.959 317.48 369.54C318.453 369.131 319.575 368.921 320.846 368.921C321.915 368.921 322.867 369.068 323.703 369.372C324.54 369.676 325.291 370.075 325.947 370.578C326.022 370.651 326.117 370.714 326.212 370.767C326.286 370.819 326.381 370.861 326.498 370.882C326.614 370.903 326.731 370.893 326.858 370.84C327.091 370.819 327.366 370.756 327.683 370.672C328.001 370.589 328.308 370.442 328.615 370.242C328.922 370.033 329.208 369.771 329.472 369.445C329.737 369.12 329.938 368.701 330.065 368.198C330.118 368.04 330.128 367.904 330.086 367.778C330.044 367.652 330.001 367.547 329.948 367.443C329.923 367.41 329.895 367.375 329.865 367.338C329.809 367.268 329.746 367.19 329.684 367.107C328.541 366.079 327.228 365.303 325.746 364.768C324.264 364.234 322.634 363.992 320.856 364.013H320.814C318.908 364.013 317.162 364.339 315.574 365.01C313.986 365.681 312.61 366.625 311.446 367.841C310.282 369.057 309.372 370.526 308.726 372.235C308.07 373.944 307.752 375.863 307.752 377.929C307.752 379.995 308.08 381.862 308.726 383.55C309.372 385.238 310.282 386.685 311.446 387.891C312.61 389.097 313.986 390.02 315.574 390.681C317.162 391.341 318.908 391.666 320.814 391.666C322.74 391.645 324.434 391.373 325.894 390.859C327.355 390.335 328.572 389.538 329.567 388.458C330.552 387.377 331.293 385.972 331.79 384.252C332.288 382.533 332.531 380.446 332.531 378.013L328.075 378.128H321.375C321.121 378.16 320.888 378.254 320.687 378.432C320.507 378.579 320.359 378.82 320.232 379.146C320.105 379.471 320.041 379.963 320.041 380.614C320.041 381.264 320.105 381.767 320.232 382.103C320.359 382.438 320.507 382.69 320.655 382.837Z" fill="#002E5B"/>
<path fill-rule="evenodd" clip-rule="evenodd" d="M106.303 365.041C104.705 364.401 102.937 364.086 101.01 364.118V364.097C99.1051 364.097 97.3586 364.422 95.7709 365.072C94.1832 365.722 92.8177 366.656 91.6745 367.862C90.5314 369.078 89.6422 370.525 89.0072 372.224C88.3721 373.923 88.0545 375.894 88.0545 377.939C88.0545 379.984 88.3721 381.83 89.0072 383.507C89.6422 385.175 90.5314 386.611 91.6745 387.807C92.8177 389.002 94.1832 389.925 95.7709 390.565C97.3586 391.205 99.1051 391.53 101.01 391.53C102.937 391.509 104.705 391.163 106.303 390.492C107.901 389.831 109.277 388.898 110.431 387.702C111.585 386.507 112.484 385.08 113.119 383.424C113.755 381.756 114.072 379.984 114.072 377.876C114.072 375.768 113.755 373.86 113.119 372.161C112.484 370.473 111.585 369.015 110.431 367.809C109.277 366.603 107.901 365.68 106.303 365.041ZM106.874 384.273C105.552 385.876 103.628 386.673 101.09 386.674C98.5309 386.673 96.5956 385.876 95.2734 384.273C93.9503 382.679 93.294 380.466 93.294 377.656C93.294 376.377 93.4634 375.202 93.7915 374.133C94.1196 373.063 94.6171 372.14 95.2734 371.375C95.9297 370.609 96.7553 370.022 97.7291 369.602C98.7029 369.193 99.8355 368.984 101.095 368.984C102.355 368.984 103.477 369.183 104.44 369.602C105.403 370.022 106.218 370.599 106.874 371.375C107.531 372.151 108.028 373.063 108.356 374.133C108.684 375.202 108.854 376.377 108.854 377.656C108.854 380.466 108.198 382.679 106.874 384.273Z" fill="#002E5B"/>
<path fill-rule="evenodd" clip-rule="evenodd" d="M79.6067 365.209C78.6646 364.916 77.5426 364.758 76.2195 364.758V364.748H67.4658V390.817H72.4301V382.711H75.8914C76.8123 382.69 77.6908 382.575 78.5588 382.376C79.2891 382.197 80.0618 381.946 80.8769 381.621C81.6919 381.296 82.3905 380.834 82.9727 380.226C83.449 379.796 83.883 379.251 84.264 378.6C84.5921 378.024 84.8885 377.3 85.1531 376.451C85.4178 375.591 85.5342 374.542 85.513 373.284C85.513 372.581 85.4495 371.889 85.3225 371.207C85.1955 370.631 85.005 370.023 84.7509 369.362C84.4969 368.701 84.1158 368.124 83.6077 367.621C83.1526 367.086 82.581 366.614 81.893 366.184C81.3108 365.838 80.5487 365.503 79.6067 365.209ZM72.3772 378.108V368.942L76.2195 369.016C77.4368 369.163 78.3471 369.488 78.9398 369.96C79.5432 370.442 79.9666 370.945 80.2206 371.47C80.4958 372.099 80.6228 372.78 80.6016 373.504C80.6334 374.637 80.3899 375.496 79.8819 376.105C79.3738 376.713 78.8234 377.153 78.2095 377.426C77.5003 377.751 76.6747 377.94 75.7326 377.992L72.3772 378.108Z" fill="#002E5B"/>
<path d="M153.197 366.195L145.015 390.943H140.411L134.737 373.629L129.254 390.901L124.576 390.827L116.393 366.048C116.319 365.848 116.33 365.681 116.436 365.555C116.489 365.481 116.542 365.429 116.584 365.408C116.764 365.314 117.007 365.198 117.304 365.072C117.611 364.947 117.96 364.852 118.373 364.789C118.775 364.726 119.23 364.716 119.728 364.768C120.225 364.821 120.765 364.957 121.347 365.188C121.4 365.209 121.464 365.261 121.538 365.335C121.665 365.46 121.771 365.607 121.845 365.786L126.904 381.777L131.773 365.859C131.794 365.66 131.911 365.481 132.112 365.335C132.178 365.289 132.236 365.247 132.288 365.209L132.377 365.146C132.578 365.072 132.842 364.989 133.16 364.905C133.477 364.821 133.837 364.758 134.229 364.716C134.621 364.674 135.065 364.684 135.541 364.737C136.028 364.789 136.515 364.926 137.023 365.156L137.091 365.203C137.151 365.245 137.22 365.293 137.288 365.345C137.489 365.492 137.627 365.67 137.711 365.869L142.739 381.861L147.651 365.796C147.725 365.618 147.841 365.481 147.989 365.377C148.042 365.339 148.09 365.312 148.132 365.288L148.18 365.261C148.381 365.188 148.646 365.104 148.984 365.02C149.312 364.936 149.693 364.884 150.106 364.873C150.53 364.863 150.974 364.905 151.461 365.01C151.948 365.114 152.435 365.303 152.943 365.576C153.017 365.607 153.081 365.649 153.134 365.733C153.239 365.911 153.261 366.069 153.208 366.226L153.197 366.195Z" fill="#002E5B"/>
<path d="M156.298 390.828H171.795L171.805 390.807C172.08 390.807 172.303 390.691 172.451 390.45C172.599 390.209 172.716 389.947 172.79 389.674C172.895 389.338 172.959 388.95 172.98 388.5C172.98 388.101 172.938 387.734 172.832 387.409C172.758 387.126 172.631 386.874 172.451 386.654C172.271 386.434 172.038 386.318 171.763 386.318H161.294V380.435H168.45C168.725 380.435 168.947 380.32 169.095 380.079C169.244 379.848 169.36 379.586 169.434 379.313C169.529 378.988 169.582 378.611 169.582 378.181C169.582 377.782 169.54 377.415 169.466 377.09C169.413 376.818 169.307 376.555 169.159 376.335C169.011 376.115 168.789 376 168.513 376H161.284V369.404H171.795C172.07 369.404 172.292 369.288 172.461 369.047C172.62 368.806 172.747 368.544 172.821 368.271C172.917 367.946 172.97 367.547 172.97 367.097C172.97 366.698 172.927 366.331 172.821 366.006C172.737 365.733 172.631 365.471 172.493 365.251C172.356 365.031 172.144 364.915 171.869 364.915H156.298V390.828Z" fill="#002E5B"/>
<path fill-rule="evenodd" clip-rule="evenodd" d="M191.956 380.792L196.338 390.786H190.591L187.087 382.449H186.971C186.738 382.501 186.505 382.533 186.262 382.543C186.018 382.554 185.764 382.575 185.478 382.606H182.239L182.091 390.901H177.18V364.653L182.853 364.538H186.357C187.595 364.538 188.781 364.716 189.892 365.083C191.004 365.45 191.977 366.006 192.803 366.74C193.629 367.485 194.274 368.397 194.729 369.498C195.185 370.589 195.386 371.858 195.343 373.294C195.29 375.182 194.984 376.723 194.412 377.929C193.84 379.135 193.025 380.089 191.956 380.792ZM184.949 377.887C185.637 377.887 186.304 377.814 186.971 377.678C187.638 377.541 188.22 377.3 188.738 376.964C189.257 376.629 189.68 376.167 189.998 375.591C190.316 375.014 190.474 374.28 190.474 373.399C190.474 372.592 190.337 371.899 190.051 371.323C189.776 370.746 189.395 370.264 188.929 369.886C188.463 369.509 187.923 369.236 187.331 369.058C186.738 368.879 186.124 368.795 185.489 368.795H182.102V377.887H184.949Z" fill="#002E5B"/>
<path d="M200.426 390.829H215.118C215.403 390.829 215.626 390.724 215.806 390.493C215.986 390.263 216.113 390.011 216.187 389.738C216.282 389.445 216.335 389.078 216.335 388.648C216.335 388.218 216.293 387.84 216.187 387.515C216.113 387.232 215.996 386.97 215.827 386.718C215.657 386.466 215.425 386.341 215.118 386.341H205.411V365.892C205.411 365.598 205.274 365.357 205.009 365.179C204.744 365.001 204.448 364.864 204.12 364.759C203.739 364.655 203.315 364.592 202.86 364.571C202.405 364.592 202.003 364.665 201.643 364.759C201.336 364.864 201.061 365.001 200.807 365.179C200.553 365.347 200.426 365.588 200.426 365.892V390.829Z" fill="#002E5B"/>
<path d="M225.018 390.786H219.99V365.545C219.99 365.293 220.107 365.105 220.35 364.958C220.593 364.821 220.869 364.717 221.165 364.643C221.493 364.538 221.885 364.486 222.351 364.486C222.837 364.486 223.282 364.538 223.684 364.643C224.012 364.717 224.319 364.832 224.595 364.979C224.87 365.126 225.018 365.356 225.018 365.66V390.786Z" fill="#002E5B"/>
<path d="M234.581 380.194H240.974C241.281 380.194 241.514 380.079 241.683 379.838C241.842 379.607 241.969 379.345 242.043 379.072C242.138 378.737 242.191 378.349 242.191 377.898C242.191 377.489 242.149 377.122 242.043 376.797C241.969 376.513 241.852 376.262 241.683 376.042C241.514 375.821 241.291 375.706 241.016 375.706H234.581V369.404H244.403C244.679 369.404 244.89 369.288 245.028 369.047C245.176 368.806 245.282 368.544 245.356 368.271C245.451 367.946 245.504 367.547 245.504 367.097C245.504 366.698 245.462 366.331 245.356 366.006C245.282 365.733 245.165 365.482 245.017 365.251C244.858 365.031 244.636 364.915 244.329 364.915H229.595V390.828H234.581V380.194Z" fill="#002E5B"/>
<path d="M268.04 369.519H261.075V390.754H256.122V369.519H249.114C248.786 369.519 248.543 369.404 248.373 369.163C248.204 368.921 248.088 368.649 248.014 368.355C247.908 367.999 247.865 367.6 247.865 367.149C247.865 366.698 247.918 366.342 248.014 366.017C248.088 365.744 248.215 365.471 248.395 365.22C248.575 364.968 248.818 364.842 249.114 364.842H268.114C268.389 364.842 268.612 364.968 268.781 365.22C268.95 365.471 269.067 365.744 269.141 366.048C269.247 366.405 269.289 366.793 269.289 367.223C269.268 367.673 269.204 368.072 269.099 368.397C269.025 368.67 268.897 368.932 268.739 369.173C268.569 369.414 268.336 369.53 268.04 369.53V369.519Z" fill="#002E5B"/>
<path d="M276.979 390.786V365.66C276.979 365.356 276.831 365.126 276.555 364.979C276.28 364.832 275.973 364.717 275.645 364.643C275.243 364.538 274.798 364.486 274.311 364.486C273.846 364.486 273.454 364.538 273.126 364.643C272.829 364.717 272.554 364.821 272.311 364.958C272.067 365.105 271.951 365.293 271.951 365.545V390.786H276.979Z" fill="#002E5B"/>
<path d="M304.634 365.744V390.901H299.648L286.248 373.095V390.786H281.294V365.587C281.294 365.388 281.358 365.22 281.485 365.094C281.537 365.021 281.601 364.968 281.675 364.947C281.823 364.874 282.046 364.8 282.342 364.738C282.638 364.675 282.966 364.633 283.348 364.601C283.729 364.58 284.141 364.58 284.586 364.622C285.031 364.664 285.475 364.759 285.941 364.905C286.015 364.926 286.089 364.968 286.174 365.021L286.629 365.472L299.648 382.481V365.618C299.648 365.367 299.775 365.168 300.029 365.01C300.283 364.863 300.58 364.748 300.908 364.675C301.268 364.57 301.68 364.507 302.167 364.486C302.623 364.517 303.035 364.57 303.385 364.675C303.692 364.748 303.977 364.863 304.242 365.031C304.507 365.199 304.644 365.43 304.644 365.723L304.634 365.744Z" fill="#002E5B"/>
</svg>
